{
  "accessors": [
    {
      "bufferView": 0,
      "componentType": 5126,
      "count": 170,
      "max": [
        0.0007952057640068233,
        0.001790504902601242,
        0.0007952057640068233
      ],
      "min": [
        -0.0007952057640068233,
        -3.211293733329512e-05,
        -0.0007952057057991624
      ],
      "name": "item_Apple/POSITION",
      "type": "VEC3"
    },
    {
      "bufferView": 0,
      "byteOffset": 12,
      "componentType": 5126,
      "count": 170,
      "name": "item_Apple/NORMAL",
      "type": "VEC3"
    },
    {
      "bufferView": 0,
      "byteOffset": 24,
      "componentType": 5126,
      "count": 170,
      "name": "item_Apple/TEXCOORD_0",
      "type": "VEC2"
    },
    {
      "bufferView": 1,
      "componentType": 5125,
      "count": 726,
      "name": "item_Apple/INDICES",
      "type": "SCALAR"
    }
  ],
  "asset": {
    "copyright": "Copyright (c) 2018-2020 Chukong Technologies Inc.",
    "generator": "FBX-glTF-conv",
    "version": "2.0"
  },
  "bufferViews": [
    {
      "buffer": 0,
      "byteLength": 5440,
      "byteStride": 32,
      "name": "item_Apple",
      "target": 34962
    },
    {
      "buffer": 0,
      "byteLength": 2904,
      "byteOffset": 5440
    }
  ],
  "buffers": [
    {
      "byteLength": 8344,
      "uri": "out.bin"
    }
  ],
  "extras": {
    "FBX-glTF-conv": {
      "animationFrameRate": 24.0
    }
  },
  "meshes": [
    {
      "name": "item_Apple",
      "primitives": [
        {
          "attributes": {
            "NORMAL": 1,
            "POSITION": 0,
            "TEXCOORD_0": 2
          },
          "indices": 3
        }
      ]
    }
  ],
  "nodes": [
    {
      "mesh": 0,
      "name": "item_Apple",
      "rotation": [
        6.123234262925839e-17,
        1.0,
        -8.146034247147327e-08,
        -4.988007341188171e-24
      ]
    }
  ],
  "scenes": [
    {
      "name": "Scene",
      "nodes": [
        0
      ]
    }
  ]
}