{
  "accessors": [
    {
      "bufferView": 0,
      "componentType": 5126,
      "count": 31,
      "max": [
        0.5871758460998535,
        0.4106285274028778,
        0.007749078795313835
      ],
      "min": [
        -0.5772039890289307,
        -0.6955493092536926,
        -2.0540060997009277
      ],
      "name": "Tree.001_LOD2_Material0/POSITION",
      "type": "VEC3"
    },
    {
      "bufferView": 0,
      "byteOffset": 12,
      "componentType": 5126,
      "count": 31,
      "name": "Tree.001_LOD2_Material0/NORMAL",
      "type": "VEC3"
    },
    {
      "bufferView": 0,
      "byteOffset": 24,
      "componentType": 5126,
      "count": 31,
      "name": "Tree.001_LOD2_Material0/TEXCOORD_0",
      "type": "VEC2"
    },
    {
      "bufferView": 1,
      "componentType": 5125,
      "count": 156,
      "name": "Tree.001_LOD2_Material0/INDICES",
      "type": "SCALAR"
    },
    {
      "bufferView": 2,
      "componentType": 5126,
      "count": 74,
      "max": [
        1.3531142473220825,
        1.332356572151184,
        -1.749064564704895
      ],
      "min": [
        -1.2053226232528687,
        -1.6154577732086182,
        -3.062237501144409
      ],
      "name": "Tree.001_LOD2_Material0/POSITION",
      "type": "VEC3"
    },
    {
      "bufferView": 2,
      "byteOffset": 12,
      "componentType": 5126,
      "count": 74,
      "name": "Tree.001_LOD2_Material0/NORMAL",
      "type": "VEC3"
    },
    {
      "bufferView": 2,
      "byteOffset": 24,
      "componentType": 5126,
      "count": 74,
      "name": "Tree.001_LOD2_Material0/TEXCOORD_0",
      "type": "VEC2"
    },
    {
      "bufferView": 3,
      "componentType": 5125,
      "count": 318,
      "name": "Tree.001_LOD2_Material0/INDICES",
      "type": "SCALAR"
    }
  ],
  "asset": {
    "copyright": "Copyright (c) 2018-2020 Chukong Technologies Inc.",
    "generator": "FBX-glTF-conv",
    "version": "2.0"
  },
  "bufferViews": [
    {
      "buffer": 0,
      "byteLength": 992,
      "byteStride": 32,
      "name": "Tree.001_LOD2_Material0",
      "target": 34962
    },
    {
      "buffer": 0,
      "byteLength": 624,
      "byteOffset": 992
    },
    {
      "buffer": 0,
      "byteLength": 2368,
      "byteOffset": 1616,
      "byteStride": 32,
      "name": "Tree.001_LOD2_Material0",
      "target": 34962
    },
    {
      "buffer": 0,
      "byteLength": 1272,
      "byteOffset": 3984
    }
  ],
  "buffers": [
    {
      "byteLength": 5256,
      "uri": "out.bin"
    }
  ],
  "extras": {
    "FBX-glTF-conv": {
      "animationFrameRate": 60.0
    }
  },
  "images": [
    {
      "extras": {
        "FBX-glTF-conv": {
          "fileName": "D:\\UnityProject\\market-simulator\\market-simulator\\Assets\\Games\\Models\\Texture\\Color.psd",
          "relativeFileName": "D:\\UnityProject\\market-simulator\\market-simulator\\Assets\\Games\\Models\\Texture\\Color.psd"
        }
      },
      "name": "base_color_texture",
      "uri": "data:image/png;base64,"
    },
    {
      "extras": {
        "FBX-glTF-conv": {
          "fileName": "U:\\2024\\5. Super maket\\Texture\\Tree.001.psd",
          "relativeFileName": "U:\\2024\\5. Super maket\\Texture\\Tree.001.psd"
        }
      },
      "name": "base_color_texture",
      "uri": "data:image/png;base64,"
    }
  ],
  "materials": [
    {
      "name": "Color",
      "pbrMetallicRoughness": {
        "baseColorTexture": {
          "index": 0
        },
        "metallicFactor": 0.4000000059604645
      }
    },
    {
      "name": "Tree.001",
      "pbrMetallicRoughness": {
        "baseColorTexture": {
          "index": 1
        },
        "metallicFactor": 0.4000000059604645,
        "roughnessFactor": 0.4150870442390442
      }
    }
  ],
  "meshes": [
    {
      "name": "Tree.001_LOD2_Material0",
      "primitives": [
        {
          "attributes": {
            "NORMAL": 1,
            "POSITION": 0,
            "TEXCOORD_0": 2
          },
          "indices": 3,
          "material": 0
        },
        {
          "attributes": {
            "NORMAL": 5,
            "POSITION": 4,
            "TEXCOORD_0": 6
          },
          "indices": 7,
          "material": 1
        }
      ]
    }
  ],
  "nodes": [
    {
      "mesh": 0,
      "name": "Tree.001_LOD2",
      "rotation": [
        0.7071068286895752,
        0.0,
        0.0,
        0.7071067094802856
      ]
    }
  ],
  "samplers": [
    {}
  ],
  "scenes": [
    {
      "name": "Scene",
      "nodes": [
        0
      ]
    }
  ],
  "textures": [
    {
      "name": "base_color_texture",
      "sampler": 0,
      "source": 0
    },
    {
      "name": "base_color_texture",
      "sampler": 0,
      "source": 1
    }
  ]
}