{
  "accessors": [
    {
      "bufferView": 0,
      "componentType": 5126,
      "count": 65,
      "max": [
        0.0007763061439618468,
        0.0027815490029752254,
        0.0005765263922512531
      ],
      "min": [
        -0.0007625099387951195,
        3.593998432194212e-10,
        -0.0005682019982486963
      ],
      "name": "item_Coffee_Medium_Roast.001/POSITION",
      "type": "VEC3"
    },
    {
      "bufferView": 0,
      "byteOffset": 12,
      "componentType": 5126,
      "count": 65,
      "name": "item_Coffee_Medium_Roast.001/NORMAL",
      "type": "VEC3"
    },
    {
      "bufferView": 0,
      "byteOffset": 24,
      "componentType": 5126,
      "count": 65,
      "name": "item_Coffee_Medium_Roast.001/TEXCOORD_0",
      "type": "VEC2"
    },
    {
      "bufferView": 1,
      "componentType": 5125,
      "count": 120,
      "name": "item_Coffee_Medium_Roast.001/INDICES",
      "type": "SCALAR"
    }
  ],
  "asset": {
    "copyright": "Copyright (c) 2018-2020 Chukong Technologies Inc.",
    "generator": "FBX-glTF-conv",
    "version": "2.0"
  },
  "bufferViews": [
    {
      "buffer": 0,
      "byteLength": 2080,
      "byteStride": 32,
      "name": "item_Coffee_Medium_Roast.001",
      "target": 34962
    },
    {
      "buffer": 0,
      "byteLength": 480,
      "byteOffset": 2080
    }
  ],
  "buffers": [
    {
      "byteLength": 2560,
      "uri": "out.bin"
    }
  ],
  "extras": {
    "FBX-glTF-conv": {
      "animationFrameRate": 24.0
    }
  },
  "meshes": [
    {
      "name": "item_Coffee_Medium_Roast.001",
      "primitives": [
        {
          "attributes": {
            "NORMAL": 1,
            "POSITION": 0,
            "TEXCOORD_0": 2
          },
          "indices": 3
        }
      ]
    }
  ],
  "nodes": [
    {
      "mesh": 0,
      "name": "item_Coffee_Medium_Roast.001",
      "rotation": [
        6.123234262925839e-17,
        1.0,
        -8.146034247147327e-08,
        -4.988007341188171e-24
      ]
    }
  ],
  "scenes": [
    {
      "name": "Scene",
      "nodes": [
        0
      ]
    }
  ]
}