{
  "accessors": [
    {
      "bufferView": 0,
      "componentType": 5126,
      "count": 1128,
      "max": [
        0.01689516007900238,
        0.0036401585675776005,
        0.021836481988430023
      ],
      "min": [
        -0.01689850725233555,
        -0.003767340676859021,
        3.199891943950206e-05
      ],
      "name": "Shelf_1/POSITION",
      "type": "VEC3"
    },
    {
      "bufferView": 0,
      "byteOffset": 12,
      "componentType": 5126,
      "count": 1128,
      "name": "Shelf_1/NORMAL",
      "type": "VEC3"
    },
    {
      "bufferView": 0,
      "byteOffset": 24,
      "componentType": 5126,
      "count": 1128,
      "name": "Shelf_1/TEXCOORD_0",
      "type": "VEC2"
    },
    {
      "bufferView": 1,
      "componentType": 5125,
      "count": 1572,
      "name": "Shelf_1/INDICES",
      "type": "SCALAR"
    }
  ],
  "asset": {
    "copyright": "Copyright (c) 2018-2020 Chukong Technologies Inc.",
    "generator": "FBX-glTF-conv",
    "version": "2.0"
  },
  "bufferViews": [
    {
      "buffer": 0,
      "byteLength": 36096,
      "byteStride": 32,
      "name": "Shelf_1",
      "target": 34962
    },
    {
      "buffer": 0,
      "byteLength": 6288,
      "byteOffset": 36096
    }
  ],
  "buffers": [
    {
      "byteLength": 42384,
      "uri": "out.bin"
    }
  ],
  "extras": {
    "FBX-glTF-conv": {
      "animationFrameRate": 24.0
    }
  },
  "meshes": [
    {
      "name": "Shelf_1",
      "primitives": [
        {
          "attributes": {
            "NORMAL": 1,
            "POSITION": 0,
            "TEXCOORD_0": 2
          },
          "indices": 3
        }
      ]
    }
  ],
  "nodes": [
    {
      "mesh": 0,
      "name": "Shelf_1",
      "rotation": [
        4.329780301713277e-17,
        0.7071067690849304,
        0.7071067690849304,
        4.329780301713277e-17
      ]
    }
  ],
  "scenes": [
    {
      "name": "Scene",
      "nodes": [
        0
      ]
    }
  ]
}