{
  "accessors": [
    {
      "bufferView": 0,
      "componentType": 5126,
      "count": 284,
      "max": [
        0.002329063368961215,
        0.0023055686615407467,
        0.0011382178636267781
      ],
      "min": [
        -0.0017707766965031624,
        -3.141666411465849e-07,
        -0.0011686962097883224
      ],
      "name": "Watermelon_LOD0/POSITION",
      "type": "VEC3"
    },
    {
      "bufferView": 0,
      "byteOffset": 12,
      "componentType": 5126,
      "count": 284,
      "name": "Watermelon_LOD0/NORMAL",
      "type": "VEC3"
    },
    {
      "bufferView": 0,
      "byteOffset": 24,
      "componentType": 5126,
      "count": 284,
      "name": "Watermelon_LOD0/TEXCOORD_0",
      "type": "VEC2"
    },
    {
      "bufferView": 1,
      "componentType": 5125,
      "count": 1308,
      "name": "Watermelon_LOD0/INDICES",
      "type": "SCALAR"
    }
  ],
  "asset": {
    "copyright": "Copyright (c) 2018-2020 Chukong Technologies Inc.",
    "generator": "FBX-glTF-conv",
    "version": "2.0"
  },
  "bufferViews": [
    {
      "buffer": 0,
      "byteLength": 9088,
      "byteStride": 32,
      "name": "Watermelon_LOD0",
      "target": 34962
    },
    {
      "buffer": 0,
      "byteLength": 5232,
      "byteOffset": 9088
    }
  ],
  "buffers": [
    {
      "byteLength": 14320,
      "uri": "out.bin"
    }
  ],
  "extras": {
    "FBX-glTF-conv": {
      "animationFrameRate": 24.0
    }
  },
  "meshes": [
    {
      "name": "Watermelon_LOD0",
      "primitives": [
        {
          "attributes": {
            "NORMAL": 1,
            "POSITION": 0,
            "TEXCOORD_0": 2
          },
          "indices": 3
        }
      ]
    }
  ],
  "nodes": [
    {
      "mesh": 0,
      "name": "Watermelon_LOD0",
      "rotation": [
        6.123234262925839e-17,
        1.0,
        -8.146034247147327e-08,
        -4.988007341188171e-24
      ]
    }
  ],
  "scenes": [
    {
      "name": "Scene",
      "nodes": [
        0
      ]
    }
  ]
}