{
  "accessors": [
    {
      "bufferView": 0,
      "componentType": 5126,
      "count": 433,
      "max": [
        0.18453961610794067,
        4.243358135223389,
        0.18453961610794067
      ],
      "min": [
        -0.36254793405532837,
        0.0,
        -0.18453961610794067
      ],
      "name": "Cylinder.008/POSITION",
      "type": "VEC3"
    },
    {
      "bufferView": 0,
      "byteOffset": 12,
      "componentType": 5126,
      "count": 433,
      "name": "Cylinder.008/NORMAL",
      "type": "VEC3"
    },
    {
      "bufferView": 0,
      "byteOffset": 24,
      "componentType": 5126,
      "count": 433,
      "name": "Cylinder.008/TEXCOORD_0",
      "type": "VEC2"
    },
    {
      "bufferView": 1,
      "componentType": 5125,
      "count": 1050,
      "name": "Cylinder.008/INDICES",
      "type": "SCALAR"
    }
  ],
  "asset": {
    "copyright": "Copyright (c) 2018-2020 Chukong Technologies Inc.",
    "generator": "FBX-glTF-conv",
    "version": "2.0"
  },
  "bufferViews": [
    {
      "buffer": 0,
      "byteLength": 13856,
      "byteStride": 32,
      "name": "Cylinder.008",
      "target": 34962
    },
    {
      "buffer": 0,
      "byteLength": 4200,
      "byteOffset": 13856
    }
  ],
  "buffers": [
    {
      "byteLength": 18056,
      "uri": "out.bin"
    }
  ],
  "extras": {
    "FBX-glTF-conv": {
      "animationFrameRate": 24.0
    }
  },
  "images": [
    {
      "extras": {
        "FBX-glTF-conv": {
          "fileName": "D:\\UnityProject\\market-simulator\\market-simulator\\Assets\\Games\\Models\\Texture\\Color.psd",
          "relativeFileName": "D:\\UnityProject\\market-simulator\\market-simulator\\Assets\\Games\\Models\\Texture\\Color.psd"
        }
      },
      "name": "base_color_texture",
      "uri": "data:image/png;base64,"
    }
  ],
  "materials": [
    {
      "name": "Color",
      "pbrMetallicRoughness": {
        "baseColorTexture": {
          "index": 0
        },
        "metallicFactor": 0.4000000059604645
      }
    }
  ],
  "meshes": [
    {
      "name": "Cylinder.008",
      "primitives": [
        {
          "attributes": {
            "NORMAL": 1,
            "POSITION": 0,
            "TEXCOORD_0": 2
          },
          "indices": 3,
          "material": 0
        }
      ]
    }
  ],
  "nodes": [
    {
      "mesh": 0,
      "name": "Cylinder",
      "translation": [
        -15.797276496887207,
        -0.0010000020265579224,
        7.218451023101807
      ]
    }
  ],
  "samplers": [
    {}
  ],
  "scenes": [
    {
      "name": "Scene",
      "nodes": [
        0
      ]
    }
  ],
  "textures": [
    {
      "name": "base_color_texture",
      "sampler": 0,
      "source": 0
    }
  ]
}