{
  "accessors": [
    {
      "bufferView": 0,
      "componentType": 5126,
      "count": 104,
      "max": [
        0.44531169533729553,
        1.3172626722735004e-07,
        0.0001709497009869665
      ],
      "min": [
        -0.445311576128006,
        -0.37613433599472046,
        -0.5413789749145508
      ],
      "name": "B1_4x3x1_SH/POSITION",
      "type": "VEC3"
    },
    {
      "bufferView": 0,
      "byteOffset": 12,
      "componentType": 5126,
      "count": 104,
      "name": "B1_4x3x1_SH/NORMAL",
      "type": "VEC3"
    },
    {
      "bufferView": 0,
      "byteOffset": 24,
      "componentType": 5126,
      "count": 104,
      "name": "B1_4x3x1_SH/TEXCOORD_0",
      "type": "VEC2"
    },
    {
      "bufferView": 0,
      "byteOffset": 32,
      "componentType": 5123,
      "count": 104,
      "name": "B1_4x3x1_SH/JOINTS_0",
      "type": "VEC4"
    },
    {
      "bufferView": 0,
      "byteOffset": 40,
      "componentType": 5126,
      "count": 104,
      "name": "B1_4x3x1_SH/WEIGHTS_0",
      "type": "VEC4"
    },
    {
      "bufferView": 1,
      "componentType": 5125,
      "count": 240,
      "name": "B1_4x3x1_SH/INDICES",
      "type": "SCALAR"
    },
    {
      "bufferView": 2,
      "componentType": 5126,
      "count": 5,
      "name": "/InverseBindMatrices",
      "type": "MAT4"
    },
    {
      "bufferView": 3,
      "componentType": 5126,
      "count": 39,
      "max": [
        0.4453109800815582,
        0.011020975187420845,
        -0.006541220471262932
      ],
      "min": [
        0.2687278687953949,
        -3.1292437085994607e-08,
        -0.5346670746803284
      ],
      "name": "Right_3/POSITION",
      "type": "VEC3"
    },
    {
      "bufferView": 3,
      "byteOffset": 12,
      "componentType": 5126,
      "count": 39,
      "name": "Right_3/NORMAL",
      "type": "VEC3"
    },
    {
      "bufferView": 3,
      "byteOffset": 24,
      "componentType": 5126,
      "count": 39,
      "name": "Right_3/TEXCOORD_0",
      "type": "VEC2"
    },
    {
      "bufferView": 3,
      "byteOffset": 32,
      "componentType": 5123,
      "count": 39,
      "name": "Right_3/JOINTS_0",
      "type": "VEC4"
    },
    {
      "bufferView": 3,
      "byteOffset": 40,
      "componentType": 5126,
      "count": 39,
      "name": "Right_3/WEIGHTS_0",
      "type": "VEC4"
    },
    {
      "bufferView": 4,
      "componentType": 5125,
      "count": 78,
      "name": "Right_3/INDICES",
      "type": "SCALAR"
    },
    {
      "bufferView": 5,
      "componentType": 5126,
      "count": 5,
      "name": "/InverseBindMatrices",
      "type": "MAT4"
    },
    {
      "bufferView": 6,
      "componentType": 5126,
      "count": 37,
      "max": [
        -0.26896533370018005,
        0.011021013371646404,
        -0.0065408628433942795
      ],
      "min": [
        -0.44554850459098816,
        4.6751210902584717e-08,
        -0.5346667170524597
      ],
      "name": "Left_3/POSITION",
      "type": "VEC3"
    },
    {
      "bufferView": 6,
      "byteOffset": 12,
      "componentType": 5126,
      "count": 37,
      "name": "Left_3/NORMAL",
      "type": "VEC3"
    },
    {
      "bufferView": 6,
      "byteOffset": 24,
      "componentType": 5126,
      "count": 37,
      "name": "Left_3/TEXCOORD_0",
      "type": "VEC2"
    },
    {
      "bufferView": 6,
      "byteOffset": 32,
      "componentType": 5123,
      "count": 37,
      "name": "Left_3/JOINTS_0",
      "type": "VEC4"
    },
    {
      "bufferView": 6,
      "byteOffset": 40,
      "componentType": 5126,
      "count": 37,
      "name": "Left_3/WEIGHTS_0",
      "type": "VEC4"
    },
    {
      "bufferView": 7,
      "componentType": 5125,
      "count": 78,
      "name": "Left_3/INDICES",
      "type": "SCALAR"
    },
    {
      "bufferView": 8,
      "componentType": 5126,
      "count": 5,
      "name": "/InverseBindMatrices",
      "type": "MAT4"
    },
    {
      "bufferView": 9,
      "componentType": 5126,
      "count": 38,
      "max": [
        0.4455803334712982,
        0.013575529679656029,
        -0.27058348059654236
      ],
      "min": [
        -0.44582340121269226,
        1.4603138254187797e-08,
        -0.541227400302887
      ],
      "name": "Front_3/POSITION",
      "type": "VEC3"
    },
    {
      "bufferView": 9,
      "byteOffset": 12,
      "componentType": 5126,
      "count": 38,
      "name": "Front_3/NORMAL",
      "type": "VEC3"
    },
    {
      "bufferView": 9,
      "byteOffset": 24,
      "componentType": 5126,
      "count": 38,
      "name": "Front_3/TEXCOORD_0",
      "type": "VEC2"
    },
    {
      "bufferView": 9,
      "byteOffset": 32,
      "componentType": 5123,
      "count": 38,
      "name": "Front_3/JOINTS_0",
      "type": "VEC4"
    },
    {
      "bufferView": 9,
      "byteOffset": 40,
      "componentType": 5126,
      "count": 38,
      "name": "Front_3/WEIGHTS_0",
      "type": "VEC4"
    },
    {
      "bufferView": 10,
      "componentType": 5125,
      "count": 60,
      "name": "Front_3/INDICES",
      "type": "SCALAR"
    },
    {
      "bufferView": 11,
      "componentType": 5126,
      "count": 5,
      "name": "/InverseBindMatrices",
      "type": "MAT4"
    },
    {
      "bufferView": 12,
      "componentType": 5126,
      "count": 38,
      "max": [
        0.4455713629722595,
        0.013575594872236252,
        5.9816222346853465e-05
      ],
      "min": [
        -0.4458211660385132,
        4.074536281289953e-12,
        -0.2705839276313782
      ],
      "name": "Back_3/POSITION",
      "type": "VEC3"
    },
    {
      "bufferView": 12,
      "byteOffset": 12,
      "componentType": 5126,
      "count": 38,
      "name": "Back_3/NORMAL",
      "type": "VEC3"
    },
    {
      "bufferView": 12,
      "byteOffset": 24,
      "componentType": 5126,
      "count": 38,
      "name": "Back_3/TEXCOORD_0",
      "type": "VEC2"
    },
    {
      "bufferView": 12,
      "byteOffset": 32,
      "componentType": 5123,
      "count": 38,
      "name": "Back_3/JOINTS_0",
      "type": "VEC4"
    },
    {
      "bufferView": 12,
      "byteOffset": 40,
      "componentType": 5126,
      "count": 38,
      "name": "Back_3/WEIGHTS_0",
      "type": "VEC4"
    },
    {
      "bufferView": 13,
      "componentType": 5125,
      "count": 60,
      "name": "Back_3/INDICES",
      "type": "SCALAR"
    },
    {
      "bufferView": 14,
      "componentType": 5126,
      "count": 5,
      "name": "/InverseBindMatrices",
      "type": "MAT4"
    },
    {
      "bufferView": 15,
      "componentType": 5126,
      "count": 2,
      "max": [
        0.6666666865348816
      ],
      "min": [
        0.0
      ],
      "name": "Root_M/Trs/Input",
      "type": "SCALAR"
    },
    {
      "bufferView": 16,
      "componentType": 5126,
      "count": 2,
      "name": "Root_M/translation/Output",
      "type": "VEC3"
    },
    {
      "bufferView": 17,
      "componentType": 5126,
      "count": 2,
      "name": "Root_M/rotation/Output",
      "type": "VEC4"
    },
    {
      "bufferView": 18,
      "componentType": 5126,
      "count": 2,
      "name": "Root_M/scale/Output",
      "type": "VEC3"
    },
    {
      "bufferView": 19,
      "componentType": 5126,
      "count": 32,
      "max": [
        0.6666666865348816
      ],
      "min": [
        0.0
      ],
      "name": "Right/Trs/Input",
      "type": "SCALAR"
    },
    {
      "bufferView": 20,
      "componentType": 5126,
      "count": 32,
      "name": "Right/translation/Output",
      "type": "VEC3"
    },
    {
      "bufferView": 21,
      "componentType": 5126,
      "count": 32,
      "name": "Right/rotation/Output",
      "type": "VEC4"
    },
    {
      "bufferView": 22,
      "componentType": 5126,
      "count": 32,
      "name": "Right/scale/Output",
      "type": "VEC3"
    },
    {
      "bufferView": 23,
      "componentType": 5126,
      "count": 32,
      "max": [
        0.6666666865348816
      ],
      "min": [
        0.0
      ],
      "name": "Left/Trs/Input",
      "type": "SCALAR"
    },
    {
      "bufferView": 24,
      "componentType": 5126,
      "count": 32,
      "name": "Left/translation/Output",
      "type": "VEC3"
    },
    {
      "bufferView": 25,
      "componentType": 5126,
      "count": 32,
      "name": "Left/rotation/Output",
      "type": "VEC4"
    },
    {
      "bufferView": 26,
      "componentType": 5126,
      "count": 32,
      "name": "Left/scale/Output",
      "type": "VEC3"
    },
    {
      "bufferView": 27,
      "componentType": 5126,
      "count": 32,
      "max": [
        0.6666666865348816
      ],
      "min": [
        0.0
      ],
      "name": "Front/Trs/Input",
      "type": "SCALAR"
    },
    {
      "bufferView": 28,
      "componentType": 5126,
      "count": 32,
      "name": "Front/translation/Output",
      "type": "VEC3"
    },
    {
      "bufferView": 29,
      "componentType": 5126,
      "count": 32,
      "name": "Front/rotation/Output",
      "type": "VEC4"
    },
    {
      "bufferView": 30,
      "componentType": 5126,
      "count": 32,
      "name": "Front/scale/Output",
      "type": "VEC3"
    },
    {
      "bufferView": 31,
      "componentType": 5126,
      "count": 32,
      "max": [
        0.6666666865348816
      ],
      "min": [
        0.0
      ],
      "name": "Back/Trs/Input",
      "type": "SCALAR"
    },
    {
      "bufferView": 32,
      "componentType": 5126,
      "count": 32,
      "name": "Back/translation/Output",
      "type": "VEC3"
    },
    {
      "bufferView": 33,
      "componentType": 5126,
      "count": 32,
      "name": "Back/rotation/Output",
      "type": "VEC4"
    },
    {
      "bufferView": 34,
      "componentType": 5126,
      "count": 32,
      "name": "Back/scale/Output",
      "type": "VEC3"
    }
  ],
  "animations": [
    {
      "channels": [
        {
          "sampler": 0,
          "target": {
            "node": 5,
            "path": "translation"
          }
        },
        {
          "sampler": 1,
          "target": {
            "node": 5,
            "path": "rotation"
          }
        },
        {
          "sampler": 2,
          "target": {
            "node": 5,
            "path": "scale"
          }
        },
        {
          "sampler": 3,
          "target": {
            "node": 6,
            "path": "translation"
          }
        },
        {
          "sampler": 4,
          "target": {
            "node": 6,
            "path": "rotation"
          }
        },
        {
          "sampler": 5,
          "target": {
            "node": 6,
            "path": "scale"
          }
        },
        {
          "sampler": 6,
          "target": {
            "node": 7,
            "path": "translation"
          }
        },
        {
          "sampler": 7,
          "target": {
            "node": 7,
            "path": "rotation"
          }
        },
        {
          "sampler": 8,
          "target": {
            "node": 7,
            "path": "scale"
          }
        },
        {
          "sampler": 9,
          "target": {
            "node": 8,
            "path": "translation"
          }
        },
        {
          "sampler": 10,
          "target": {
            "node": 8,
            "path": "rotation"
          }
        },
        {
          "sampler": 11,
          "target": {
            "node": 8,
            "path": "scale"
          }
        },
        {
          "sampler": 12,
          "target": {
            "node": 9,
            "path": "translation"
          }
        },
        {
          "sampler": 13,
          "target": {
            "node": 9,
            "path": "rotation"
          }
        },
        {
          "sampler": 14,
          "target": {
            "node": 9,
            "path": "scale"
          }
        }
      ],
      "name": "Take 001",
      "samplers": [
        {
          "input": 35,
          "output": 36
        },
        {
          "input": 35,
          "output": 37
        },
        {
          "input": 35,
          "output": 38
        },
        {
          "input": 39,
          "output": 40
        },
        {
          "input": 39,
          "output": 41
        },
        {
          "input": 39,
          "output": 42
        },
        {
          "input": 43,
          "output": 44
        },
        {
          "input": 43,
          "output": 45
        },
        {
          "input": 43,
          "output": 46
        },
        {
          "input": 47,
          "output": 48
        },
        {
          "input": 47,
          "output": 49
        },
        {
          "input": 47,
          "output": 50
        },
        {
          "input": 51,
          "output": 52
        },
        {
          "input": 51,
          "output": 53
        },
        {
          "input": 51,
          "output": 54
        }
      ]
    }
  ],
  "asset": {
    "copyright": "Copyright (c) 2018-2020 Chukong Technologies Inc.",
    "generator": "FBX-glTF-conv",
    "version": "2.0"
  },
  "bufferViews": [
    {
      "buffer": 0,
      "byteLength": 5824,
      "byteStride": 56,
      "name": "B1_4x3x1_SH",
      "target": 34962
    },
    {
      "buffer": 0,
      "byteLength": 960,
      "byteOffset": 5824
    },
    {
      "buffer": 0,
      "byteLength": 320,
      "byteOffset": 6784
    },
    {
      "buffer": 0,
      "byteLength": 2184,
      "byteOffset": 7104,
      "byteStride": 56,
      "name": "Right_3",
      "target": 34962
    },
    {
      "buffer": 0,
      "byteLength": 312,
      "byteOffset": 9288
    },
    {
      "buffer": 0,
      "byteLength": 320,
      "byteOffset": 9600
    },
    {
      "buffer": 0,
      "byteLength": 2072,
      "byteOffset": 9920,
      "byteStride": 56,
      "name": "Left_3",
      "target": 34962
    },
    {
      "buffer": 0,
      "byteLength": 312,
      "byteOffset": 11992
    },
    {
      "buffer": 0,
      "byteLength": 320,
      "byteOffset": 12304
    },
    {
      "buffer": 0,
      "byteLength": 2128,
      "byteOffset": 12624,
      "byteStride": 56,
      "name": "Front_3",
      "target": 34962
    },
    {
      "buffer": 0,
      "byteLength": 240,
      "byteOffset": 14752
    },
    {
      "buffer": 0,
      "byteLength": 320,
      "byteOffset": 14992
    },
    {
      "buffer": 0,
      "byteLength": 2128,
      "byteOffset": 15312,
      "byteStride": 56,
      "name": "Back_3",
      "target": 34962
    },
    {
      "buffer": 0,
      "byteLength": 240,
      "byteOffset": 17440
    },
    {
      "buffer": 0,
      "byteLength": 320,
      "byteOffset": 17680
    },
    {
      "buffer": 0,
      "byteLength": 8,
      "byteOffset": 18000
    },
    {
      "buffer": 0,
      "byteLength": 24,
      "byteOffset": 18008
    },
    {
      "buffer": 0,
      "byteLength": 32,
      "byteOffset": 18032
    },
    {
      "buffer": 0,
      "byteLength": 24,
      "byteOffset": 18064
    },
    {
      "buffer": 0,
      "byteLength": 128,
      "byteOffset": 18088
    },
    {
      "buffer": 0,
      "byteLength": 384,
      "byteOffset": 18216
    },
    {
      "buffer": 0,
      "byteLength": 512,
      "byteOffset": 18600
    },
    {
      "buffer": 0,
      "byteLength": 384,
      "byteOffset": 19112
    },
    {
      "buffer": 0,
      "byteLength": 128,
      "byteOffset": 19496
    },
    {
      "buffer": 0,
      "byteLength": 384,
      "byteOffset": 19624
    },
    {
      "buffer": 0,
      "byteLength": 512,
      "byteOffset": 20008
    },
    {
      "buffer": 0,
      "byteLength": 384,
      "byteOffset": 20520
    },
    {
      "buffer": 0,
      "byteLength": 128,
      "byteOffset": 20904
    },
    {
      "buffer": 0,
      "byteLength": 384,
      "byteOffset": 21032
    },
    {
      "buffer": 0,
      "byteLength": 512,
      "byteOffset": 21416
    },
    {
      "buffer": 0,
      "byteLength": 384,
      "byteOffset": 21928
    },
    {
      "buffer": 0,
      "byteLength": 128,
      "byteOffset": 22312
    },
    {
      "buffer": 0,
      "byteLength": 384,
      "byteOffset": 22440
    },
    {
      "buffer": 0,
      "byteLength": 512,
      "byteOffset": 22824
    },
    {
      "buffer": 0,
      "byteLength": 384,
      "byteOffset": 23336
    }
  ],
  "buffers": [
    {
      "byteLength": 23720,
      "uri": "out.bin"
    }
  ],
  "extras": {
    "FBX-glTF-conv": {
      "animationFrameRate": 60.0
    }
  },
  "images": [
    {
      "extras": {
        "FBX-glTF-conv": {
          "fileName": "C:\\Users\\hungtm\\Downloads\\box.psd",
          "relativeFileName": "C:\\Users\\hungtm\\Downloads\\box.psd"
        }
      },
      "name": "base_color_texture",
      "uri": "data:image/png;base64,"
    }
  ],
  "materials": [
    {
      "name": "Material.001",
      "pbrMetallicRoughness": {
        "baseColorTexture": {
          "index": 0
        },
        "metallicFactor": 0.4000000059604645,
        "roughnessFactor": 0.27216553688049316
      }
    }
  ],
  "meshes": [
    {
      "name": "B1_4x3x1_SH",
      "primitives": [
        {
          "attributes": {
            "JOINTS_0": 3,
            "NORMAL": 1,
            "POSITION": 0,
            "TEXCOORD_0": 2,
            "WEIGHTS_0": 4
          },
          "indices": 5,
          "material": 0
        }
      ]
    },
    {
      "name": "Right_3",
      "primitives": [
        {
          "attributes": {
            "JOINTS_0": 10,
            "NORMAL": 8,
            "POSITION": 7,
            "TEXCOORD_0": 9,
            "WEIGHTS_0": 11
          },
          "indices": 12,
          "material": 0
        }
      ]
    },
    {
      "name": "Left_3",
      "primitives": [
        {
          "attributes": {
            "JOINTS_0": 17,
            "NORMAL": 15,
            "POSITION": 14,
            "TEXCOORD_0": 16,
            "WEIGHTS_0": 18
          },
          "indices": 19,
          "material": 0
        }
      ]
    },
    {
      "name": "Front_3",
      "primitives": [
        {
          "attributes": {
            "JOINTS_0": 24,
            "NORMAL": 22,
            "POSITION": 21,
            "TEXCOORD_0": 23,
            "WEIGHTS_0": 25
          },
          "indices": 26,
          "material": 0
        }
      ]
    },
    {
      "name": "Back_3",
      "primitives": [
        {
          "attributes": {
            "JOINTS_0": 31,
            "NORMAL": 29,
            "POSITION": 28,
            "TEXCOORD_0": 30,
            "WEIGHTS_0": 32
          },
          "indices": 33,
          "material": 0
        }
      ]
    }
  ],
  "nodes": [
    {
      "children": [
        1,
        2,
        3,
        4
      ],
      "mesh": 0,
      "name": "B1_4x3x1_SH",
      "skin": 0
    },
    {
      "mesh": 1,
      "name": "Right_3",
      "skin": 1
    },
    {
      "mesh": 2,
      "name": "Left_3",
      "skin": 2
    },
    {
      "mesh": 3,
      "name": "Front_3",
      "skin": 3
    },
    {
      "mesh": 4,
      "name": "Back_3",
      "skin": 4
    },
    {
      "children": [
        6,
        7,
        8,
        9
      ],
      "extras": {
        "FBX-glTF-conv": {
          "skeleton": {
            "skeletonType": "LimbNode"
          }
        }
      },
      "name": "Root_M",
      "translation": [
        1.2963992958248127e-05,
        -0.35701826214790344,
        -0.28562143445014954
      ]
    },
    {
      "extras": {
        "FBX-glTF-conv": {
          "skeleton": {
            "skeletonType": "LimbNode"
          }
        }
      },
      "name": "Right",
      "rotation": [
        0.0,
        0.0,
        0.7882335186004639,
        0.6153762936592102
      ],
      "translation": [
        0.4411482810974121,
        0.36117511987686157,
        0.013615687377750874
      ]
    },
    {
      "extras": {
        "FBX-glTF-conv": {
          "skeleton": {
            "skeletonType": "LimbNode"
          }
        }
      },
      "name": "Left",
      "rotation": [
        0.0,
        0.0,
        -0.771745502948761,
        0.6359314918518066
      ],
      "translation": [
        -0.4465945363044739,
        0.36117511987686157,
        0.013615687377750874
      ]
    },
    {
      "extras": {
        "FBX-glTF-conv": {
          "skeleton": {
            "skeletonType": "LimbNode"
          }
        }
      },
      "name": "Front",
      "rotation": [
        -0.7974494695663452,
        0.0,
        0.0,
        0.6033857464790344
      ],
      "translation": [
        0.0,
        0.36117511987686157,
        0.28184473514556885
      ]
    },
    {
      "extras": {
        "FBX-glTF-conv": {
          "skeleton": {
            "skeletonType": "LimbNode"
          }
        }
      },
      "name": "Back",
      "rotation": [
        0.8385518193244934,
        0.0,
        0.0,
        0.5448218584060669
      ],
      "translation": [
        0.0,
        0.36117511987686157,
        -0.25819242000579834
      ]
    }
  ],
  "samplers": [
    {}
  ],
  "scenes": [
    {
      "nodes": [
        0,
        5
      ]
    }
  ],
  "skins": [
    {
      "inverseBindMatrices": 6,
      "joints": [
        5,
        6,
        7,
        8,
        9
      ]
    },
    {
      "inverseBindMatrices": 13,
      "joints": [
        5,
        6,
        7,
        8,
        9
      ]
    },
    {
      "inverseBindMatrices": 20,
      "joints": [
        5,
        6,
        7,
        8,
        9
      ]
    },
    {
      "inverseBindMatrices": 27,
      "joints": [
        5,
        6,
        7,
        8,
        9
      ]
    },
    {
      "inverseBindMatrices": 34,
      "joints": [
        5,
        6,
        7,
        8,
        9
      ]
    }
  ],
  "textures": [
    {
      "name": "base_color_texture",
      "sampler": 0,
      "source": 0
    }
  ]
}