{
  "accessors": [
    {
      "bufferView": 0,
      "componentType": 5126,
      "count": 764,
      "max": [
        0.002350172493606806,
        0.002350684255361557,
        0.0023117701057344675
      ],
      "min": [
        -0.0023521704133599997,
        6.221500370884314e-05,
        -0.002359488047659397
      ],
      "name": "item_Toilet_Paper_LOD0/POSITION",
      "type": "VEC3"
    },
    {
      "bufferView": 0,
      "byteOffset": 12,
      "componentType": 5126,
      "count": 764,
      "name": "item_Toilet_Paper_LOD0/NORMAL",
      "type": "VEC3"
    },
    {
      "bufferView": 0,
      "byteOffset": 24,
      "componentType": 5126,
      "count": 764,
      "name": "item_Toilet_Paper_LOD0/TEXCOORD_0",
      "type": "VEC2"
    },
    {
      "bufferView": 1,
      "componentType": 5125,
      "count": 2880,
      "name": "item_Toilet_Paper_LOD0/INDICES",
      "type": "SCALAR"
    }
  ],
  "asset": {
    "copyright": "Copyright (c) 2018-2020 Chukong Technologies Inc.",
    "generator": "FBX-glTF-conv",
    "version": "2.0"
  },
  "bufferViews": [
    {
      "buffer": 0,
      "byteLength": 24448,
      "byteStride": 32,
      "name": "item_Toilet_Paper_LOD0",
      "target": 34962
    },
    {
      "buffer": 0,
      "byteLength": 11520,
      "byteOffset": 24448
    }
  ],
  "buffers": [
    {
      "byteLength": 35968,
      "uri": "out.bin"
    }
  ],
  "extras": {
    "FBX-glTF-conv": {
      "animationFrameRate": 24.0
    }
  },
  "meshes": [
    {
      "name": "item_Toilet_Paper_LOD0",
      "primitives": [
        {
          "attributes": {
            "NORMAL": 1,
            "POSITION": 0,
            "TEXCOORD_0": 2
          },
          "indices": 3
        }
      ]
    }
  ],
  "nodes": [
    {
      "mesh": 0,
      "name": "item_Toilet_Paper_LOD0",
      "rotation": [
        6.123234262925839e-17,
        1.0,
        -8.146034247147327e-08,
        -4.988007341188171e-24
      ]
    }
  ],
  "scenes": [
    {
      "name": "Scene",
      "nodes": [
        0
      ]
    }
  ]
}