{
  "accessors": [
    {
      "bufferView": 0,
      "componentType": 5126,
      "count": 222,
      "max": [
        0.15255175530910492,
        4.016035556793213,
        1.597929835319519
      ],
      "min": [
        -0.15255174040794373,
        0.0,
        -0.14154084026813507
      ],
      "name": "Cylinder.003/POSITION",
      "type": "VEC3"
    },
    {
      "bufferView": 0,
      "byteOffset": 12,
      "componentType": 5126,
      "count": 222,
      "name": "Cylinder.003/NORMAL",
      "type": "VEC3"
    },
    {
      "bufferView": 0,
      "byteOffset": 24,
      "componentType": 5126,
      "count": 222,
      "name": "Cylinder.003/TEXCOORD_0",
      "type": "VEC2"
    },
    {
      "bufferView": 1,
      "componentType": 5125,
      "count": 990,
      "name": "Cylinder.003/INDICES",
      "type": "SCALAR"
    }
  ],
  "asset": {
    "copyright": "Copyright (c) 2018-2020 Chukong Technologies Inc.",
    "generator": "FBX-glTF-conv",
    "version": "2.0"
  },
  "bufferViews": [
    {
      "buffer": 0,
      "byteLength": 7104,
      "byteStride": 32,
      "name": "Cylinder.003",
      "target": 34962
    },
    {
      "buffer": 0,
      "byteLength": 3960,
      "byteOffset": 7104
    }
  ],
  "buffers": [
    {
      "byteLength": 11064,
      "uri": "out.bin"
    }
  ],
  "extras": {
    "FBX-glTF-conv": {
      "animationFrameRate": 24.0
    }
  },
  "images": [
    {
      "extras": {
        "FBX-glTF-conv": {
          "fileName": "D:\\UnityProject\\market-simulator\\market-simulator\\Assets\\Games\\Models\\Texture\\Color.psd",
          "relativeFileName": "D:\\UnityProject\\market-simulator\\market-simulator\\Assets\\Games\\Models\\Texture\\Color.psd"
        }
      },
      "name": "base_color_texture",
      "uri": "data:image/png;base64,"
    }
  ],
  "materials": [
    {
      "name": "Color",
      "pbrMetallicRoughness": {
        "baseColorTexture": {
          "index": 0
        },
        "metallicFactor": 0.4000000059604645
      }
    }
  ],
  "meshes": [
    {
      "name": "Cylinder.003",
      "primitives": [
        {
          "attributes": {
            "NORMAL": 1,
            "POSITION": 0,
            "TEXCOORD_0": 2
          },
          "indices": 3,
          "material": 0
        }
      ]
    }
  ],
  "nodes": [
    {
      "mesh": 0,
      "name": "Lighting",
      "translation": [
        -15.327795028686523,
        -0.0009999871253967285,
        7.2071075439453125
      ]
    }
  ],
  "samplers": [
    {}
  ],
  "scenes": [
    {
      "name": "Scene",
      "nodes": [
        0
      ]
    }
  ],
  "textures": [
    {
      "name": "base_color_texture",
      "sampler": 0,
      "source": 0
    }
  ]
}